<?xml version="1.0" encoding="UTF-8" standalone="no"?>
<svg width="24" height="24" viewBox="0 0 24 24" version="1.1" xmlns="http://www.w3.org/2000/svg">
<path fill="#ffb16f" d="M10.929791,4.3397329 6.2992936,5.0584887 2.6485906,7.9961283 0.95584942,12.365703 1.6746052,16.9962l2.9376396,3.650703 4.369575,1.692742 2.0466012,-0.317615c0.272869,-0.04235 0.459746,-0.297881 0.417405,-0.570752-0.04235,-0.27287-0.297881,-0.459747-0.570752,-0.417406L9.0932289,21.310477 5.4109254,19.998778 2.8091388,16.765481 2.2350166,12.758362 3.7967154,9.1073089 6.9050126,6.3180223 10.818382,5.3689001l3.869803,1.4991988 0.48467,0.6023515c0.173121,0.2151862 0.48792,0.2492567 0.703072,0.076093 0.215151,-0.1731551 0.24917,-0.4879501 0.07598,-0.7030726L15.299366,6.0324741Z" />
<path fill="#f9bd69" d="M18.935835,7.440696 14.703133,6.4419439 10.53809,7.6933673 7.5568113,10.859658 6.558059,15.092361l1.2514235,4.165043 3.1662905,2.981279 4.232703,0.998752 4.165043,-1.251423 2.981279,-3.166292 0.03083,-0.130403 0.967923,-4.102299-1.251423,-4.165043z m -0.490415,0.9116968 2.776091,2.6138992 1.097207,3.651767-0.875657,3.711345-2.613858,2.775992-3.651768,1.097207L11.466189,21.326986 8.6900977,18.713087 7.5928911,15.06132 8.4685079,11.350074 11.082407,8.5739827 14.734174,7.4767759Z" />
<path fill="#dc9159" d="m14.893306,8.733257c1.001504,0.00183 1.975801,0.2976431 2.931641,0.6367187L15.153072,14.313336 12.822994,9.2625539c0.63987,-0.3347223 1.351215,-0.5337976 2.070312,-0.5292969z m -3.136719,0.9375 1.8125,3.84375-3.476562,-1.998046c0.282466,-0.790851 0.953942,-1.368704 1.664062,-1.845704z m6.837891,0.2851562c0.764632,0.5534728 1.483016,1.2102118 1.755859,2.1015628l -4.138672,2.21875z M9.3796339,12.36607 14.16479,15.395367 9.5026808,17.920757C9.0618168,16.096766 8.8653531,14.169813 9.3796339,12.36607Z m11.2675781,0.863281c0.04243,0.210918 0.08367,0.422375 0.119141,0.636719 0.26504,1.346315 0.09907,2.739355-0.322266,4.046875l -4.126953,-2.664063z m -5.107422,2.748047 4.003907,2.839844 0.01953,0.0059c0.182509,0.06524 0.148291,0.09655 0.101562,0.166016-0.05934,0.08822-0.157741,0.179639-0.259765,0.279297l -0.0039,0.0039-0.0039,0.0039c -0.953963,1.078929-2.346888,1.711403-3.781262,1.800752-0.02512,-1.699869-0.05105,-3.39974-0.07617,-5.099609z m -0.822265,0.002-0.566406,5.068359c -1.503834,-0.366013-3.009031,-0.960499-4.015626,-2.138718z" />
<path fill="#cad3a9" d="m8.9792433,0.75765805c -0.042453,-0.001562-0.084765,-6.8107e-4-0.1269531,0.003906-0.1012518,0.0110116-0.7787109,0.0860059-0.8710938,0.1328125 0.4858474,0.80139975 1.2032463,1.72157425 1.4707032,2.62304695 0.2731561,0.8956138 0.2536871,1.8190193-0.039063,2.7109374-0.00928,0.00109-0.018026,0.00197-0.027344,0.00195-0.305521,-0.1182342-0.5776641,-0.311499-0.8515618,-0.4921841 0.1331703,0.2710238 0.2907618,0.5339403 0.3730469,0.828125 0.057559,0.1501073-0.045637,0.3145064-0.1953125,0.3359375-0.1982869,0.04216-0.4044943,0.00513-0.5996094,-0.039063 0.2492531,0.2322922 0.6049093,0.2641572 0.9238281,0.28125 0.2933259,0.012241 0.5864869,-0.02119 0.8769531,-0.048828 0.413733,0.07572 0.825624,0.2124506 1.25,0.1796875 0.210407,-0.013789 0.423089,-0.1411385 0.494141,-0.3574219-0.24669,0.033153-0.532114,0.032564-0.734375,-0.140625-0.07926,-0.079332-0.173548,-0.2237137-0.07617,-0.3242188 0.170286,-0.3132895 0.330256,-0.6381713 0.417969,-0.9882812 0.02318,-0.1177622-0.110078,0.1167342-0.15625,0.15625-0.168227,0.2026109-0.319753,0.4325635-0.541016,0.5761719-0.0272,0.00995-0.05381,0.011235-0.08008,0.00781 0.02998,-0.1165433 0.02576,-0.2508037 0.03711,-0.359375 0.05864,-0.7845398 0.03175,-1.5856952-0.103515,-2.3632813l0.841797,-0.265625C13.18366,4.3326569 15.937935,5.1517987 18.063229,4.9217176 15.857026,3.9529266 18.521662,3.8083226 15.699948,2.5096083 14.350805,1.8886556 12.90065,2.0861148 11.280026,2.630702l -0.884766,0.375C10.267512,2.4771614 10.006834,1.9332625 9.7585402,1.4451581 9.6244279,1.2521941 9.5787826,0.94821146 9.3464308,0.8553143 9.2326387,0.79349036 9.1066014,0.76234261 8.9792433,0.75765805Z" />
</svg>
